<?xml version="1.0" encoding="utf-8"?>
<!-- Generator: Adobe Illustrator 23.1.1, SVG Export Plug-In . SVG Version: 6.00 Build 0)  -->
<svg version="1.1" id="Слой_1" xmlns="http://www.w3.org/2000/svg" xmlns:xlink="http://www.w3.org/1999/xlink" x="0px" y="0px"
	 viewBox="0 0 673.7 626.8" style="enable-background:new 0 0 673.7 626.8;" xml:space="preserve">
<style type="text/css">
	.st0{opacity:0.19;}
	.st1{opacity:0.2;}
	.st2{fill:#F5F7FC;}
	.st3{fill:#D6DDED;}
	.st4{fill:#5C7DA8;}
	.st5{opacity:0.34;}
	.st6{fill:url(#SVGID_1_);}
	.st7{fill:none;}
	.st8{fill:#4B6688;}
	.st9{fill:#CDD4E3;}
</style>
<title>alsbo</title>
<g>
	<g>
		<g class="st0">
			
				<image style="overflow:visible;enable-background:new    ;" width="2094" height="658" xlink:href="9E59E0A06B0DB60B.png"  transform="matrix(0.2396 0 0 0.2396 87.6719 419.13)">
			</image>
		</g>
	</g>
	<g>
		<g class="st1">
			
				<image style="overflow:visible;enable-background:new    ;" width="2279" height="2278" xlink:href="9E59E0A06B0DB609.png"  transform="matrix(0.2399 0 0 0.2399 65.2501 21.85)">
			</image>
		</g>
		<g class="st1">
			
				<image style="overflow:visible;enable-background:new    ;" width="2554" height="1526" xlink:href="9E59E0A06B0DB60F.png"  transform="matrix(0.2398 0 0 0.2398 32.2608 95.23)">
			</image>
		</g>
		<circle class="st2" cx="338.6" cy="278.2" r="237.6"/>
		<path class="st3" d="M608.8,291.3c-0.1-55.9-45.4-101.2-101.4-101.2c-8.5,0-16.9,1.1-25.1,3.2c-4.2-22.4-25.8-37.1-48.2-32.9
			c-1,0.2-2,0.4-3.1,0.7c-16-47.8-67.8-73.5-115.5-57.5c-36.8,12.4-61.8,46.7-62.2,85.5c-5.3-0.9-10.7-1.4-16.1-1.4
			c-36.6,0-69.9,21.4-85.2,54.7c-41.3-4.8-78.6,24.8-83.4,66.1s24.8,78.6,66.1,83.4c2.9,0.3,5.9,0.5,8.9,0.5c0.9,0,1.9,0,2.8,0v0
			h361.2C563.5,392.3,608.8,347.1,608.8,291.3z"/>
		<path class="st4" d="M430.9,315.7c-6.7,0-13.3,1.7-19.1,5.1c0.1-1.7,0.2-3.4,0.2-5.1c0-40.4-32.8-73.2-73.2-73.2
			c-13.7,0-27.1,3.8-38.7,11c-18.6-39.2-65.3-55.9-104.5-37.3c-31.8,15.1-49.7,49.5-43.8,84.2c-0.4,0-0.8,0-1.1,0
			c-25.4,0-46.1,20.6-46.1,46.1s20.6,46.1,46.1,46.1h280.2c21.2,0,38.4-17.2,38.4-38.4C469.2,332.9,452.1,315.7,430.9,315.7
			L430.9,315.7L430.9,315.7z"/>
		<path class="st2" d="M460,306.7c-6.8,0-13.4,1.6-19.5,4.6c-13.5-28.7-47.6-41-76.3-27.6c-14.2,6.7-25.1,18.8-30,33.7
			c-20.7-4.8-41.4,8.2-46.1,28.9c-4.8,20.7,8.2,41.4,28.9,46.1c2.8,0.6,5.6,1,8.5,1L460,393c23.8,0.4,43.5-18.7,43.8-42.5
			c0.4-23.8-18.7-43.5-42.5-43.8C460.9,306.7,460.4,306.7,460,306.7L460,306.7z"/>
		<g class="st5">
			
				<image style="overflow:visible;enable-background:new    ;" width="2508" height="854" xlink:href="9E59E0A06B0DB608.png"  transform="matrix(0.2397 0 0 0.2397 31.2124 192.67)">
			</image>
		</g>
		
			<linearGradient id="SVGID_1_" gradientUnits="userSpaceOnUse" x1="337.3962" y1="390.7199" x2="339.5562" y2="274.5999" gradientTransform="matrix(1 0 0 -1 0 628)">
			<stop  offset="5.000000e-02" style="stop-color:#BDD5FF"/>
			<stop  offset="0.97" style="stop-color:#122F49"/>
		</linearGradient>
		<path class="st6" d="M596.1,321.8c-3.6,4-7.9,7.3-12.8,9.6c-20.4,10.4-50.8,11.6-50.8,11.6L409,343.9l-89,0.6l-89,0.6
			c-13,0.2-25.8-2.9-37.4-8.8l-9.5-5l-44.4-23.1c-9.6-4.8-17.7-12.3-23.2-21.6c-10.1-17.5-27.7-47.1-37.3-58.7
			c-14-16.9,0-15.1,0-15.1l34.2,11.8l42.2,40.4c1.7,1.5,3.9,2.4,6.2,2.4h49c0,0,283.9,1.2,305.5,0.1c21.6-1.1,56.8,10.2,67.6,15.8
			S612.3,302.4,596.1,321.8z"/>
		<path class="st3" d="M247.9,295h5.9c2.1,0,3.9,1.7,3.9,3.9v16.5c0,2.1-1.7,3.9-3.9,3.9h-5.9c-2.1,0-3.9-1.7-3.9-3.9v-16.5
			C244.1,296.8,245.8,295,247.9,295z"/>
		<path class="st3" d="M283.2,295h5.9c2.1,0,3.9,1.7,3.9,3.9v16.5c0,2.1-1.7,3.9-3.9,3.9h-5.9c-2.1,0-3.9-1.7-3.9-3.9v-16.5
			C279.4,296.8,281.1,295,283.2,295z"/>
		<path class="st3" d="M317.5,295h5.9c2.1,0,3.9,1.7,3.9,3.9v16.5c0,2.1-1.7,3.9-3.9,3.9h-5.9c-2.1,0-3.9-1.7-3.9-3.9v-16.5
			C313.6,296.8,315.3,295,317.5,295z"/>
		<path class="st3" d="M352.8,295h5.9c2.1,0,3.9,1.7,3.9,3.9v16.5c0,2.1-1.7,3.9-3.9,3.9h-5.9c-2.1,0-3.9-1.7-3.9-3.9v-16.5
			C348.9,296.8,350.6,295,352.8,295z"/>
		<path class="st3" d="M388.7,295h5.9c2.1,0,3.9,1.7,3.9,3.9v16.5c0,2.1-1.7,3.9-3.9,3.9h-5.9c-2.1,0-3.9-1.7-3.9-3.9v-16.5
			C384.8,296.8,386.5,295,388.7,295z"/>
		<path class="st3" d="M424,295h5.9c2.1,0,3.9,1.7,3.9,3.9v16.5c0,2.1-1.7,3.9-3.9,3.9H424c-2.1,0-3.9-1.7-3.9-3.9v-16.5
			C420.1,296.8,421.8,295,424,295z"/>
		<path class="st3" d="M458.2,295h5.9c2.1,0,3.9,1.7,3.9,3.9v16.5c0,2.1-1.7,3.9-3.9,3.9h-5.9c-2.1,0-3.9-1.7-3.9-3.9v-16.5
			C454.4,296.8,456.1,295,458.2,295z"/>
		<path class="st3" d="M493.5,295h5.9c2.1,0,3.9,1.7,3.9,3.9v16.5c0,2.1-1.7,3.9-3.9,3.9h-5.9c-2.1,0-3.9-1.7-3.9-3.9v-16.5
			C489.6,296.8,491.4,295,493.5,295z"/>
		<polygon class="st7" points="160.1,494.3 178.2,494.3 169.1,464.6 		"/>
		<path class="st7" d="M268.6,505.5c-7-2.2-13.9-4.7-20.7-7.5v7.5H268.6z"/>
		<path class="st7" d="M421.5,508.1c4.4,0,7.5-0.8,9.3-2.3c1.8-1.6,2.8-3.9,2.7-6.3c0-0.8-0.1-1.6-0.3-2.3c-8.1,3.5-16.3,6.5-24.7,9
			v2L421.5,508.1z"/>
		<path class="st7" d="M511.8,461.2c-4.7-0.2-9.3,1.8-12.4,5.5c-3.1,3.6-4.7,9.7-4.7,18.1s1.6,14.4,4.6,18c3.1,3.6,7.3,5.5,12.6,5.5
			c5.5,0,9.7-1.8,12.7-5.4c3-3.6,4.5-10,4.5-19.2c0-7.8-1.6-13.4-4.7-17C521.4,463,517.1,461.2,511.8,461.2z"/>
		<path class="st8" d="M168.2,443.2h-12.8l-31,82.6h26l4-13.6h29l4.1,13.6h26.7l-23.2-61.6C183.1,457.7,175.4,450.7,168.2,443.2z
			 M160.1,494.3l9-29.7l9.1,29.7H160.1z"/>
		<path class="st8" d="M248,505.5v-7.5c-8.7-3.7-17.3-7.8-25.5-12.5v40.4h65.3v-15.2c-6.5-1.4-12.9-3.1-19.1-5.1L248,505.5z"/>
		<path class="st8" d="M299.3,512.8c1.3,2.3,2.9,4.4,4.8,6.3c5.4,5.4,15.1,8.1,29.2,8.1c8,0,14.6-1.2,19.9-3.5
			c4.5-1.9,8.4-4.9,11.3-8.8C342.7,517.2,320.8,516.5,299.3,512.8L299.3,512.8z"/>
		<path class="st8" d="M433.5,499.5c0.1,2.4-0.9,4.7-2.7,6.3c-1.8,1.6-4.9,2.3-9.3,2.3h-13v-2c-8.5,2.6-17,4.6-25.7,6.2v13.5h44
			c3.8-0.2,7.6-0.6,11.4-1.1c4.3-0.6,7.5-1.5,9.7-2.7c3.4-1.9,6.2-4.7,8.2-8.1c2-3.5,3.1-7.5,3-11.5c0-5.2-1.4-9.6-4.2-13.1
			c-0.5-0.6-1.1-1.2-1.7-1.8c-6.5,3.5-13.1,6.8-20,9.7C433.3,497.8,433.5,498.6,433.5,499.5z"/>
		<path class="st8" d="M512.3,441.9c-12.8,13.5-27.1,25.5-42.7,35.7c-0.3,2.3-0.4,4.7-0.4,7c0,9.7,1.9,17.7,5.7,24.1
			c3.4,6.1,8.6,11,14.8,14.1c6.1,3,13.8,4.4,23.1,4.5c9.2,0,16.8-1.7,23-5.2c6-3.3,10.9-8.3,14.1-14.4c3.3-6.2,4.9-14.1,4.9-23.7
			c0-13.3-3.7-23.6-11.2-31C536.1,445.5,525.7,441.9,512.3,441.9z M524.7,502.8c-3,3.6-7.2,5.4-12.7,5.4c-5.3,0-9.5-1.8-12.6-5.5
			c-3.1-3.6-4.6-9.6-4.6-18c0-8.4,1.6-14.4,4.7-18.1c3.1-3.6,7.6-5.6,12.4-5.5c5.4,0,9.6,1.8,12.8,5.4c3.1,3.6,4.7,9.2,4.7,17
			C529.2,492.8,527.7,499.2,524.7,502.8L524.7,502.8z"/>
		<path class="st9" d="M168.2,443.2c7.2,7.5,14.8,14.5,22.9,21l-7.9-21H168.2z"/>
		<path class="st9" d="M248,443.2h-25.6v42.2c8.3,4.7,16.8,8.9,25.6,12.5V443.2z"/>
		<path class="st3" d="M268.6,505.5c6.3,2,12.7,3.7,19.1,5.1v-5.1H268.6z"/>
		<path class="st9" d="M369.8,499c0.1-4.3-1.1-8.5-3.3-12.2c-2.2-3.6-5.7-6.7-10.5-9.1c-4.8-2.5-12.8-4.9-24-7.3
			c-4.5-0.9-7.4-2-8.6-3c-1.1-0.8-1.8-2.1-1.9-3.5c0-1.8,0.8-3.5,2.2-4.6c1.5-1.3,3.7-1.9,6.7-1.9c3.6,0,6.4,0.9,8.5,2.5
			s3.4,4.4,4,8.1l24-1.4c-1.1-8.6-4.4-14.8-9.9-18.7c-5.5-3.9-13.6-5.9-24.1-5.9c-8.6,0-15.4,1.1-20.3,3.2
			c-4.5,1.8-8.4,4.9-11.1,8.9c-2.4,3.5-3.6,7.7-3.6,11.9c-0.1,6.1,2.5,12,7.2,15.9c4.8,4.2,12.7,7.5,23.9,10
			c6.8,1.5,11.2,3.1,13.1,4.8c1.7,1.4,2.8,3.5,2.8,5.7c0,2.3-1.1,4.5-3,5.9c-2,1.7-4.8,2.6-8.4,2.6c-4.9,0-8.6-1.7-11.3-5
			c-1.6-2.1-2.7-5.1-3.2-9l-24.3,1.5c0.4,5.1,1.8,10,4.4,14.3c21.5,3.7,43.5,4.4,65.2,2.2c0.3-0.5,0.7-0.9,1-1.4
			C368.3,509.3,369.9,504.2,369.8,499z"/>
		<path class="st9" d="M450.6,476.4c3-3.5,4.7-8,4.6-12.6c0.1-5.6-2.2-10.9-6.4-14.6c-4.3-3.9-10.4-5.9-18.3-5.9h-47.8v69.1
			c8.7-1.6,17.3-3.7,25.7-6.2v-14.8h13c4.5,0,7.6,0.7,9.4,2.2c1.1,0.9,1.9,2.2,2.4,3.5c6.8-2.9,13.5-6.2,20-9.7
			c-3.3-2.8-7.2-4.7-11.4-5.5C445.2,480.8,448.2,478.9,450.6,476.4z M427.9,473.6c-1.6,1.4-4.3,2.1-8.3,2.1h-11.1V460h11.3
			c3.9,0,6.6,0.7,8.1,2c1.6,1.4,2.4,3.5,2.3,5.6C430.3,469.9,429.5,472,427.9,473.6L427.9,473.6z"/>
		<path class="st9" d="M512.3,441.9h-0.5c-13.4,0-23.9,3.8-31.4,11.3c-6.1,6.1-9.8,14.3-10.9,24.5
			C485.1,467.4,499.5,455.4,512.3,441.9z"/>
	</g>
</g>
</svg>
